# Blender v2.79 (sub 0) OBJ File: 'Level Picker 3.blend'
# www.blender.org
mtllib Level Picker 3.mtl
o Cube
v 1.000000 1.010284 -1.000000
v 1.000000 1.010284 1.000000
v -1.000000 1.010284 1.000000
v -1.000000 1.010284 -1.000000
v 1.000000 1.245497 -0.999999
v 0.999999 1.245497 1.000001
v -1.000000 1.245497 1.000000
v -1.000000 1.245497 -1.000000
v 0.999999 1.010282 3.000000
v -1.000001 1.010282 3.000000
v 0.999999 1.245495 3.000000
v -1.000001 1.245495 3.000000
v 0.999999 1.010281 5.000000
v -1.000001 1.010281 5.000000
v 0.999998 1.245494 5.000000
v -1.000002 1.245494 5.000000
v -1.000001 1.010282 3.000000
v -1.000001 1.245495 3.000000
v -1.000001 1.010281 5.000000
v -1.000002 1.245494 5.000000
v -3.000000 1.010282 0.999999
v -3.000000 1.010282 -1.000001
v -3.000000 1.245495 0.999999
v -3.000000 1.245495 -1.000001
v -3.000001 1.010280 2.999999
v -3.000001 1.245493 2.999999
v -3.000001 1.010280 2.999999
v -3.000001 1.245493 2.999999
v -3.000001 1.010279 5.000000
v -3.000001 1.245492 4.999999
v -5.000000 1.010279 0.999999
v -5.000000 1.010279 -1.000002
v -5.000000 1.245492 0.999999
v -5.000000 1.245492 -1.000001
v -5.000001 1.010277 2.999999
v -5.000001 1.245490 2.999999
v -5.000001 1.010277 2.999999
v -5.000001 1.245490 2.999999
v -5.000001 1.010276 4.999999
v -5.000001 1.245489 4.999999
v -7.000000 1.010277 0.999998
v -7.000000 1.010277 -1.000002
v -7.000000 1.245490 0.999998
v -7.000000 1.245490 -1.000002
v -7.000001 1.010275 2.999998
v -7.000001 1.245488 2.999998
v -7.000001 1.010275 2.999998
v -7.000001 1.245488 2.999998
v -7.000001 1.010274 4.999999
v -7.000001 1.245487 4.999998
v -5.000002 1.010280 6.999999
v -3.000002 1.010283 7.000000
v -3.000002 1.245496 6.999999
v -5.000002 1.245493 6.999999
v -5.000002 1.010284 8.999999
v -3.000002 1.010287 9.000000
v -3.000002 1.245500 8.999999
v -5.000002 1.245497 8.999998
v -5.000002 1.010284 8.999999
v -3.000002 1.010287 9.000000
v -3.000002 1.245500 8.999999
v -5.000002 1.245497 8.999998
v -7.000002 1.010280 6.999999
v -7.000002 1.245493 6.999998
v -7.000002 1.010284 8.999998
v -7.000002 1.245497 8.999997
v -1.000002 1.010283 7.000000
v -1.000002 1.245496 7.000000
v -1.000002 1.010287 9.000000
v -1.000002 1.245500 8.999999
v -3.000003 1.010295 11.000000
v -3.000003 1.245508 10.999999
v -5.000003 1.010292 10.999999
v -5.000003 1.245505 10.999998
v -5.000003 1.010292 10.999999
v -3.000003 1.010295 11.000000
v -3.000003 1.245508 10.999999
v -5.000003 1.245505 10.999998
v -7.000003 1.010292 10.999998
v -7.000003 1.245505 10.999997
v -1.000003 1.010295 11.000000
v -1.000003 1.245508 10.999999
v -3.000004 1.010303 13.000000
v -3.000004 1.245516 12.999999
v -5.000003 1.010301 12.999999
v -5.000003 1.245513 12.999998
v -5.000003 1.010301 12.999999
v -3.000004 1.010303 13.000000
v -3.000004 1.245516 12.999999
v -5.000003 1.245513 12.999998
v -7.000003 1.010301 12.999998
v -7.000003 1.245513 12.999997
v -1.000004 1.010303 13.000000
v -1.000004 1.245516 12.999999
vn 0.0000 -1.0000 -0.0000
vn 0.0000 1.0000 -0.0000
vn 1.0000 0.0000 0.0000
vn 0.0000 0.0000 -1.0000
vn 0.0000 -0.0000 1.0000
vn -1.0000 0.0000 -0.0000
usemtl Material
s off
f 1//1 2//1 3//1 4//1
f 5//2 8//2 7//2 6//2
f 1//3 5//3 6//3 2//3
f 3//1 2//1 9//1 10//1
f 7//2 8//2 24//2 23//2
f 5//4 1//4 4//4 8//4
f 20//2 18//2 28//2 30//2
f 6//2 7//2 12//2 11//2
f 8//4 4//4 22//4 24//4
f 2//3 6//3 11//3 9//3
f 13//5 15//5 16//5 14//5
f 10//1 9//1 13//1 14//1
f 11//2 12//2 16//2 15//2
f 9//3 11//3 15//3 13//3
f 3//1 10//1 25//1 21//1
f 16//5 12//5 18//5 20//5
f 10//5 14//5 19//5 17//5
f 14//5 16//5 20//5 19//5
f 24//4 22//4 32//4 34//4
f 28//5 26//5 36//5 38//5
f 21//1 25//1 35//1 31//1
f 40//6 39//6 51//6 54//6
f 12//2 7//2 23//2 26//2
f 10//5 17//5 27//5 25//5
f 4//1 3//1 21//1 22//1
f 19//5 20//5 30//5 29//5
f 18//5 12//5 26//5 28//5
f 17//1 19//1 29//1 27//1
f 37//1 39//1 49//1 47//1
f 34//4 32//4 42//4 44//4
f 38//5 36//5 46//5 48//5
f 31//1 35//1 45//1 41//1
f 27//1 29//1 39//1 37//1
f 26//2 23//2 33//2 36//2
f 23//2 24//2 34//2 33//2
f 30//2 28//2 38//2 40//2
f 22//1 21//1 31//1 32//1
f 25//5 27//5 37//5 35//5
f 41//6 43//6 44//6 42//6
f 46//5 45//5 47//5 48//5
f 43//6 41//6 45//6 46//6
f 48//6 47//6 49//6 50//6
f 36//2 33//2 43//2 46//2
f 33//2 34//2 44//2 43//2
f 40//2 38//2 48//2 50//2
f 32//1 31//1 41//1 42//1
f 35//5 37//5 47//5 45//5
f 39//5 40//5 50//5 49//5
f 53//2 54//2 58//2 57//2
f 39//1 29//1 52//1 51//1
f 30//2 40//2 54//2 53//2
f 29//3 30//3 53//3 52//3
f 70//2 57//2 72//2 82//2
f 65//1 55//1 73//1 79//1
f 51//1 52//1 56//1 55//1
f 58//2 54//2 64//2 66//2
f 62//5 58//5 74//5 78//5
f 55//5 56//5 60//5 59//5
f 59//1 60//1 76//1 75//1
f 57//5 58//5 62//5 61//5
f 64//6 63//6 65//6 66//6
f 51//1 55//1 65//1 63//1
f 69//3 70//3 82//3 81//3
f 54//4 51//4 63//4 64//4
f 67//3 68//3 70//3 69//3
f 52//4 53//4 68//4 67//4
f 53//2 57//2 70//2 68//2
f 56//1 52//1 67//1 69//1
f 73//5 75//5 87//5 85//5
f 74//2 80//2 92//2 86//2
f 71//1 81//1 93//1 83//1
f 76//5 71//5 83//5 88//5
f 80//6 79//6 91//6 92//6
f 57//5 61//5 77//5 72//5
f 61//2 62//2 78//2 77//2
f 60//5 56//5 71//5 76//5
f 66//6 65//6 79//6 80//6
f 55//5 59//5 75//5 73//5
f 58//2 66//2 80//2 74//2
f 56//1 69//1 81//1 71//1
f 83//5 84//5 89//5 88//5
f 84//5 83//5 93//5 94//5
f 88//5 89//5 90//5 87//5
f 86//5 85//5 87//5 90//5
f 85//5 86//5 92//5 91//5
f 82//2 72//2 84//2 94//2
f 79//1 73//1 85//1 91//1
f 75//1 76//1 88//1 87//1
f 78//5 74//5 86//5 90//5
f 72//5 77//5 89//5 84//5
f 81//3 82//3 94//3 93//3
f 77//2 78//2 90//2 89//2
