# Blender v2.79 (sub 0) OBJ File: 'Level 3 7.blend'
# www.blender.org
mtllib Level 3 7.mtl
o Cube
v 1.000000 1.008540 -0.998253
v 1.000000 1.012031 1.001744
v -1.000000 1.012031 1.001744
v -1.000000 1.008540 -0.998253
v 1.000000 1.243753 -0.998663
v 0.999999 1.247243 1.001334
v -1.000000 1.247243 1.001333
v -1.000000 1.243753 -0.998664
v 3.000000 1.008541 -0.998252
v 3.000000 1.012032 1.001744
v 3.000000 1.243753 -0.998663
v 2.999999 1.247244 1.001334
v 5.000000 1.008542 -0.998252
v 5.000000 1.012033 1.001745
v 5.000000 1.243754 -0.998662
v 4.999999 1.247245 1.001335
v 3.000000 1.015517 3.001741
v 2.999999 1.250730 3.001332
v 5.000000 1.015518 3.001742
v 4.999999 1.250731 3.001333
v 2.999999 1.019002 5.001739
v 2.999998 1.254214 5.001329
v 4.999999 1.019003 5.001740
v 4.999998 1.254215 5.001330
v 2.999998 1.022486 7.001736
v 2.999997 1.257699 7.001326
v 4.999999 1.022487 7.001737
v 4.999998 1.257700 7.001327
v 2.999997 1.025971 9.001733
v 2.999997 1.261183 9.001324
v 4.999998 1.025972 9.001734
v 4.999997 1.261184 9.001325
v 2.999996 1.029454 11.001730
v 2.999996 1.264666 11.001321
v 4.999997 1.029454 11.001731
v 4.999996 1.264667 11.001322
v 0.999999 1.018996 5.001738
v 0.999998 1.254208 5.001328
v 0.999998 1.022480 7.001735
v 0.999997 1.257693 7.001325
v 0.999997 1.025965 9.001732
v 0.999997 1.261177 9.001323
v 0.999996 1.029447 11.001729
v 0.999996 1.264660 11.001320
v 6.999999 1.019011 5.001740
v 6.999998 1.254223 5.001330
v 6.999999 1.022495 7.001737
v 6.999998 1.257708 7.001328
v 6.999998 1.025980 9.001735
v 6.999997 1.261193 9.001326
v 6.999997 1.029463 11.001732
v 6.999996 1.264675 11.001323
vn -0.0000 -1.0000 0.0017
vn 0.0000 1.0000 -0.0017
vn -0.0000 0.0017 1.0000
vn -1.0000 -0.0000 -0.0000
vn 0.0000 -0.0017 -1.0000
vn 1.0000 0.0000 0.0000
usemtl Material
s off
f 1//1 2//1 3//1 4//1
f 5//2 8//2 7//2 6//2
f 5//2 6//2 12//2 11//2
f 2//3 6//3 7//3 3//3
f 3//4 7//4 8//4 4//4
f 5//5 1//5 4//5 8//5
f 12//4 10//4 17//4 18//4
f 6//3 2//3 10//3 12//3
f 1//5 5//5 11//5 9//5
f 2//1 1//1 9//1 10//1
f 13//6 15//6 16//6 14//6
f 10//1 9//1 13//1 14//1
f 11//2 12//2 16//2 15//2
f 9//5 11//5 15//5 13//5
f 17//1 19//1 23//1 21//1
f 16//2 12//2 18//2 20//2
f 10//1 14//1 19//1 17//1
f 14//6 16//6 20//6 19//6
f 29//1 33//1 43//1 41//1
f 18//4 17//4 21//4 22//4
f 20//2 18//2 22//2 24//2
f 19//6 20//6 24//6 23//6
f 28//2 26//2 30//2 32//2
f 24//2 22//2 26//2 28//2
f 36//3 35//3 51//3 52//3
f 21//1 23//1 27//1 25//1
f 29//1 31//1 35//1 33//1
f 32//2 36//2 52//2 50//2
f 25//1 27//1 31//1 29//1
f 30//2 26//2 40//2 42//2
f 34//3 33//3 35//3 36//3
f 22//5 21//5 37//5 38//5
f 32//2 30//2 34//2 36//2
f 31//1 27//1 47//1 49//1
f 38//4 37//4 39//4 40//4
f 40//4 39//4 41//4 42//4
f 42//4 41//4 43//4 44//4
f 25//1 29//1 41//1 39//1
f 21//1 25//1 39//1 37//1
f 34//2 30//2 42//2 44//2
f 33//3 34//3 44//3 43//3
f 26//2 22//2 38//2 40//2
f 45//6 46//6 48//6 47//6
f 47//6 48//6 50//6 49//6
f 49//6 50//6 52//6 51//6
f 24//2 28//2 48//2 46//2
f 23//5 24//5 46//5 45//5
f 28//2 32//2 50//2 48//2
f 35//1 31//1 49//1 51//1
f 27//1 23//1 45//1 47//1
