# Blender v2.79 (sub 0) OBJ File: 'Level 3 6.blend'
# www.blender.org
mtllib Level 3 6.mtl
o Cube
v 1.000000 3.010284 -1.000000
v 1.000000 1.010284 -1.000000
v -1.000000 1.010284 -1.000000
v -1.000000 3.010284 -1.000000
v 1.000000 3.010283 -0.764787
v 0.999999 1.010283 -0.764787
v -1.000000 1.010284 -0.764787
v -1.000000 3.010284 -0.764787
v 3.000000 3.010283 -0.999999
v 3.000000 1.010283 -0.999999
v 3.000000 3.010283 -0.764786
v 2.999999 1.010283 -0.764786
v 5.000000 3.010283 -0.999998
v 5.000000 1.010283 -0.999998
v 5.000000 3.010282 -0.764785
v 4.999999 1.010282 -0.764785
v 7.000000 3.010282 -0.999996
v 7.000000 1.010282 -0.999996
v 7.000000 3.010282 -0.764783
v 6.999999 1.010281 -0.764783
v 9.000000 3.010281 -0.999994
v 9.000000 1.010281 -0.999994
v 9.000000 3.010281 -0.764781
v 8.999999 1.010281 -0.764781
v 0.999999 -0.989716 -1.000005
v 0.999999 -0.989717 -0.764792
v 2.999999 -0.989717 -1.000004
v 2.999999 -0.989717 -0.764792
v 5.000000 -0.989717 -1.000003
v 4.999999 -0.989718 -0.764791
v 7.000000 -0.989718 -1.000001
v 6.999999 -0.989718 -0.764789
v 8.999999 -0.989719 -0.999999
v 8.999998 -0.989719 -0.764787
v 0.999999 -2.989716 -1.000011
v 0.999998 -2.989717 -0.764798
v 2.999999 -2.989717 -1.000010
v 2.999998 -2.989717 -0.764797
v 4.999999 -2.989717 -1.000009
v 4.999998 -2.989718 -0.764796
v 6.999999 -2.989718 -1.000007
v 6.999998 -2.989718 -0.764794
v 8.999998 -2.989719 -1.000005
v 8.999997 -2.989719 -0.764792
v 0.999998 -4.989716 -1.000016
v 0.999997 -4.989717 -0.764803
v 2.999998 -4.989717 -1.000015
v 2.999997 -4.989717 -0.764802
v 4.999999 -4.989717 -1.000014
v 4.999998 -4.989718 -0.764801
v 6.999999 -4.989718 -1.000012
v 6.999998 -4.989718 -0.764799
v 8.999997 -4.989719 -1.000010
v 8.999996 -4.989719 -0.764797
v 10.999998 -2.989720 -0.999997
v 10.999997 -4.989720 -1.000002
v 10.999997 -2.989720 -0.764784
v 10.999996 -4.989720 -0.764789
v 8.999996 -6.989719 -1.000014
v 8.999995 -6.989720 -0.764801
v 10.999996 -6.989720 -1.000006
v 10.999995 -6.989720 -0.764793
v 8.999996 -8.989719 -1.000018
v 8.999995 -8.989719 -0.764805
v 10.999996 -8.989719 -1.000010
v 10.999995 -8.989719 -0.764797
v 8.999996 -9.324619 -1.000019
v 8.999995 -9.324619 -0.764806
v 10.999996 -9.324619 -1.000011
v 10.999995 -9.324619 -0.764798
vn 0.0000 0.0000 -1.0000
vn -0.0000 -0.0000 1.0000
vn -0.0000 -1.0000 -0.0000
vn -1.0000 0.0000 -0.0000
vn 0.0000 1.0000 0.0000
vn 1.0000 0.0000 0.0000
usemtl Material
s off
f 1//1 2//1 3//1 4//1
f 5//2 8//2 7//2 6//2
f 5//2 6//2 12//2 11//2
f 2//3 6//3 7//3 3//3
f 3//4 7//4 8//4 4//4
f 5//5 1//5 4//5 8//5
f 11//2 12//2 16//2 15//2
f 16//2 12//2 28//2 30//2
f 1//5 5//5 11//5 9//5
f 2//1 1//1 9//1 10//1
f 13//5 15//5 19//5 17//5
f 9//5 11//5 15//5 13//5
f 24//2 20//2 32//2 34//2
f 10//1 9//1 13//1 14//1
f 14//1 18//1 31//1 29//1
f 10//1 14//1 29//1 27//1
f 14//1 13//1 17//1 18//1
f 15//2 16//2 20//2 19//2
f 21//6 23//6 24//6 22//6
f 18//1 17//1 21//1 22//1
f 19//2 20//2 24//2 23//2
f 17//5 19//5 23//5 21//5
f 30//2 28//2 38//2 40//2
f 29//1 31//1 41//1 39//1
f 31//1 33//1 43//1 41//1
f 26//4 25//4 35//4 36//4
f 22//6 24//6 34//6 33//6
f 6//4 2//4 25//4 26//4
f 2//1 10//1 27//1 25//1
f 20//2 16//2 30//2 32//2
f 12//2 6//2 26//2 28//2
f 18//1 22//1 33//1 31//1
f 44//2 42//2 52//2 54//2
f 40//2 38//2 48//2 50//2
f 39//1 41//1 51//1 49//1
f 41//1 43//1 53//1 51//1
f 34//2 32//2 42//2 44//2
f 28//2 26//2 36//2 38//2
f 32//2 30//2 40//2 42//2
f 27//1 29//1 39//1 37//1
f 25//1 27//1 37//1 35//1
f 33//6 34//6 44//6 43//6
f 46//3 45//3 47//3 48//3
f 48//3 47//3 49//3 50//3
f 52//3 51//3 53//3 54//3
f 50//3 49//3 51//3 52//3
f 38//2 36//2 46//2 48//2
f 42//2 40//2 50//2 52//2
f 37//1 39//1 49//1 47//1
f 35//1 37//1 47//1 45//1
f 43//5 44//5 57//5 55//5
f 36//4 35//4 45//4 46//4
f 55//6 57//6 58//6 56//6
f 54//4 53//4 59//4 60//4
f 53//1 43//1 55//1 56//1
f 44//2 54//2 58//2 57//2
f 59//1 61//1 65//1 63//1
f 53//1 56//1 61//1 59//1
f 56//6 58//6 62//6 61//6
f 58//2 54//2 60//2 62//2
f 64//4 63//4 67//4 68//4
f 60//4 59//4 63//4 64//4
f 62//2 60//2 64//2 66//2
f 61//6 62//6 66//6 65//6
f 68//3 67//3 69//3 70//3
f 66//2 64//2 68//2 70//2
f 65//6 66//6 70//6 69//6
f 63//1 65//1 69//1 67//1
