# Blender v2.79 (sub 0) OBJ File: 'Level 3 5.blend'
# www.blender.org
mtllib Level 3 5.mtl
o Cube
v 1.000000 3.010284 -1.000000
v 1.000000 1.010284 -1.000000
v -1.000000 1.010284 -1.000000
v -1.000000 3.010284 -1.000000
v 1.000000 3.010283 -0.764787
v 0.999999 1.010283 -0.764787
v -1.000000 1.010284 -0.764787
v -1.000000 3.010284 -0.764787
v 0.999999 -0.989716 -1.000002
v -1.000001 -0.989716 -1.000002
v 0.999999 -0.989717 -0.764789
v -1.000001 -0.989716 -0.764789
v 3.000000 1.010283 -0.999995
v 2.999999 1.010283 -0.764782
v 3.000000 -0.989717 -0.999997
v 2.999999 -0.989717 -0.764784
v 5.000000 1.010283 -0.999989
v 4.999999 1.010282 -0.764776
v 5.000000 -0.989717 -0.999991
v 4.999999 -0.989717 -0.764778
v 7.000000 1.010283 -0.999983
v 6.999999 1.010282 -0.764770
v 7.000000 -0.989717 -0.999984
v 6.999999 -0.989718 -0.764772
v 7.443886 1.010283 -0.999981
v 7.443885 1.010282 -0.764768
v 7.443885 -0.989717 -0.999983
v 7.443885 -0.989718 -0.764770
vn 0.0000 0.0000 -1.0000
vn -0.0000 -0.0000 1.0000
vn 1.0000 -0.0000 0.0000
vn -1.0000 0.0000 -0.0000
vn 0.0000 1.0000 0.0000
vn -0.0000 -1.0000 -0.0000
usemtl Material
s off
f 1//1 2//1 3//1 4//1
f 5//2 8//2 7//2 6//2
f 1//3 5//3 6//3 2//3
f 6//2 7//2 12//2 11//2
f 3//4 7//4 8//4 4//4
f 5//5 1//5 4//5 8//5
f 9//6 11//6 12//6 10//6
f 7//4 3//4 10//4 12//4
f 9//1 2//1 13//1 15//1
f 3//1 2//1 9//1 10//1
f 16//6 15//6 19//6 20//6
f 6//2 11//2 16//2 14//2
f 2//5 6//5 14//5 13//5
f 11//6 9//6 15//6 16//6
f 18//2 20//2 24//2 22//2
f 14//2 16//2 20//2 18//2
f 13//5 14//5 18//5 17//5
f 15//1 13//1 17//1 19//1
f 23//1 21//1 25//1 27//1
f 17//5 18//5 22//5 21//5
f 19//1 17//1 21//1 23//1
f 20//6 19//6 23//6 24//6
f 25//3 26//3 28//3 27//3
f 24//6 23//6 27//6 28//6
f 22//2 24//2 28//2 26//2
f 21//5 22//5 26//5 25//5
