# Blender v2.79 (sub 0) OBJ File: 'Level 3 3.blend'
# www.blender.org
mtllib Level 3 3.mtl
o Cube
v 1.000000 4.997690 -1.000000
v 1.000000 2.997690 -1.000000
v -1.000000 2.997691 -1.000000
v -1.000000 4.997691 -1.000000
v 1.000000 4.997690 -0.764787
v 0.999999 2.997690 -0.764787
v -1.000000 2.997691 -0.764787
v -1.000000 4.997690 -0.764787
v 3.000000 4.997690 -0.999999
v 3.000000 2.997690 -0.999999
v 3.000000 4.997689 -0.764786
v 2.999999 2.997689 -0.764786
v 5.000000 4.997689 -0.999998
v 5.000000 2.997689 -0.999998
v 5.000000 4.997689 -0.764785
v 4.999999 2.997689 -0.764785
v 7.000000 4.997689 -0.999996
v 7.000000 2.997689 -0.999996
v 7.000000 4.997688 -0.764783
v 6.999999 2.997688 -0.764783
v 9.000000 4.997688 -0.999994
v 9.000000 2.997688 -0.999994
v 9.000000 4.997687 -0.764781
v 8.999999 2.997687 -0.764781
v 0.999999 0.997690 -1.000005
v 0.999999 0.997690 -0.764792
v 3.000000 0.997690 -1.000004
v 2.999999 0.997689 -0.764792
v 11.000000 4.997687 -0.999990
v 11.000000 2.997687 -0.999990
v 11.000000 4.997687 -0.764777
v 10.999999 2.997687 -0.764777
v 9.000000 0.997688 -0.999999
v 8.999999 0.997687 -0.764787
v 11.000000 0.997687 -0.999995
v 10.999999 0.997687 -0.764782
v 0.999999 -1.002310 -1.000010
v 0.999998 -1.002310 -0.764798
v 2.999999 -1.002310 -1.000010
v 2.999998 -1.002311 -0.764797
v 13.000000 2.997687 -0.999982
v 12.999999 2.997687 -0.764769
v 13.000000 0.997687 -0.999987
v 12.999999 0.997687 -0.764774
v 11.000000 -1.002312 -1.000002
v 10.999999 -1.002313 -0.764789
v 13.000000 -1.002312 -0.999993
v 12.999999 -1.002313 -0.764781
v 5.000000 0.997689 -0.999998
v 4.999999 0.997689 -0.764786
v 4.999999 -1.002311 -1.000004
v 4.999998 -1.002311 -0.764791
v 7.000000 0.997689 -0.999992
v 6.999999 0.997688 -0.764779
v 6.999999 -1.002311 -0.999997
v 6.999998 -1.002312 -0.764785
v 4.999998 -3.002311 -1.000008
v 4.999997 -3.002311 -0.764795
v 6.999998 -3.002311 -1.000002
v 6.999997 -3.002312 -0.764789
v 8.999999 -1.002312 -0.999989
v 8.999998 -1.002313 -0.764777
v 8.999998 -3.002312 -0.999994
v 8.999997 -3.002313 -0.764781
v 10.999999 -1.002313 -0.999981
v 10.999998 -1.002314 -0.764768
v 10.999998 -3.002313 -0.999985
v 10.999997 -3.002314 -0.764773
v 12.999999 -1.002314 -0.999973
v 12.999998 -1.002315 -0.764760
v 12.999998 -3.002314 -0.999977
v 12.999997 -3.002315 -0.764764
v 14.999999 -1.002315 -0.999965
v 14.999998 -1.002316 -0.764752
v 14.999998 -3.002315 -0.999969
v 14.999997 -3.002316 -0.764756
v 15.613774 -1.002315 -0.999963
v 15.613773 -1.002316 -0.764750
v 15.613773 -3.002315 -0.999967
v 15.613772 -3.002316 -0.764754
vn 0.0000 0.0000 -1.0000
vn 0.0000 -0.0000 1.0000
vn -0.0000 -1.0000 -0.0000
vn -1.0000 0.0000 -0.0000
vn 0.0000 1.0000 -0.0000
vn 1.0000 -0.0000 0.0000
usemtl Material
s off
f 1//1 2//1 3//1 4//1
f 5//2 8//2 7//2 6//2
f 5//2 6//2 12//2 11//2
f 2//3 6//3 7//3 3//3
f 3//4 7//4 8//4 4//4
f 5//5 1//5 4//5 8//5
f 12//3 10//3 14//3 16//3
f 10//6 12//6 28//6 27//6
f 1//5 5//5 11//5 9//5
f 2//1 1//1 9//1 10//1
f 15//2 16//2 20//2 19//2
f 10//1 9//1 13//1 14//1
f 11//2 12//2 16//2 15//2
f 9//5 11//5 15//5 13//5
f 20//3 18//3 22//3 24//3
f 13//5 15//5 19//5 17//5
f 16//3 14//3 18//3 20//3
f 14//1 13//1 17//1 18//1
f 23//2 24//2 32//2 31//2
f 18//1 17//1 21//1 22//1
f 19//2 20//2 24//2 23//2
f 17//5 19//5 23//5 21//5
f 28//2 26//2 38//2 40//2
f 6//4 2//4 25//4 26//4
f 2//1 10//1 27//1 25//1
f 12//2 6//2 26//2 28//2
f 29//6 31//6 32//6 30//6
f 21//5 23//5 31//5 29//5
f 22//1 30//1 35//1 33//1
f 22//1 21//1 29//1 30//1
f 34//3 33//3 35//3 36//3
f 24//4 22//4 33//4 34//4
f 32//2 24//2 34//2 36//2
f 36//4 35//4 45//4 46//4
f 38//3 37//3 39//3 40//3
f 26//4 25//4 37//4 38//4
f 25//1 27//1 39//1 37//1
f 39//1 27//1 49//1 51//1
f 41//6 42//6 44//6 43//6
f 35//1 30//1 41//1 43//1
f 32//2 36//2 44//2 42//2
f 30//5 32//5 42//5 41//5
f 46//3 45//3 47//3 48//3
f 44//2 36//2 46//2 48//2
f 43//6 44//6 48//6 47//6
f 35//1 43//1 47//1 45//1
f 50//2 52//2 56//2 54//2
f 28//2 40//2 52//2 50//2
f 40//3 39//3 51//3 52//3
f 27//5 28//5 50//5 49//5
f 53//6 54//6 56//6 55//6
f 49//5 50//5 54//5 53//5
f 51//1 49//1 53//1 55//1
f 51//1 55//1 59//1 57//1
f 58//3 57//3 59//3 60//3
f 56//2 60//2 64//2 62//2
f 52//4 51//4 57//4 58//4
f 56//2 52//2 58//2 60//2
f 63//1 61//1 65//1 67//1
f 55//5 56//5 62//5 61//5
f 59//1 55//1 61//1 63//1
f 60//3 59//3 63//3 64//3
f 66//2 68//2 72//2 70//2
f 61//5 62//5 66//5 65//5
f 62//2 64//2 68//2 66//2
f 64//3 63//3 67//3 68//3
f 71//1 69//1 73//1 75//1
f 68//3 67//3 71//3 72//3
f 67//1 65//1 69//1 71//1
f 65//5 66//5 70//5 69//5
f 73//5 74//5 78//5 77//5
f 69//5 70//5 74//5 73//5
f 70//2 72//2 76//2 74//2
f 72//3 71//3 75//3 76//3
f 77//6 78//6 80//6 79//6
f 74//2 76//2 80//2 78//2
f 76//3 75//3 79//3 80//3
f 75//1 73//1 77//1 79//1
