# Blender v2.79 (sub 0) OBJ File: 'Level 3 Model.blend'
# www.blender.org
mtllib Level 3 Model.mtl
o Cube
v 1.000000 25.681534 -1.000000
v 1.000000 25.681534 1.000000
v -1.000000 25.681534 1.000000
v -1.000000 25.681534 -1.000000
v 1.000000 25.916746 -0.999999
v 0.999999 25.916746 1.000001
v -1.000000 25.916746 1.000000
v -1.000000 25.916746 -1.000000
v 3.000000 25.681534 -0.999999
v 3.000000 25.681534 1.000001
v 3.000000 25.916748 -0.999999
v 2.999999 25.916748 1.000001
v 5.000000 25.681536 -0.999999
v 5.000000 25.681536 1.000001
v 5.000000 25.916748 -0.999998
v 4.999999 25.916748 1.000002
v 1.000000 25.681538 -3.000000
v -0.999999 25.681538 -3.000000
v 1.000001 25.916750 -3.000000
v -0.999999 25.916750 -3.000000
v 3.000000 25.681538 -3.000000
v 3.000001 25.916752 -2.999999
v 5.000000 25.681540 -2.999999
v 5.000001 25.916752 -2.999998
v 1.000001 25.681541 -5.000000
v -0.999999 25.681541 -5.000000
v 1.000002 25.916754 -5.000000
v -0.999999 25.916754 -5.000000
v 3.000001 25.681543 -5.000000
v 3.000001 25.916756 -4.999999
v 5.000001 25.681543 -4.999999
v 5.000001 25.916756 -4.999998
v 1.000002 25.681545 -7.000000
v 1.000002 25.916759 -7.000000
v 3.000001 25.681547 -7.000000
v 3.000002 25.916759 -6.999999
v 1.000002 25.681549 -9.000000
v 1.000003 25.916763 -9.000000
v 3.000002 25.681551 -9.000000
v 3.000002 25.916763 -8.999999
v 1.000002 25.681551 -9.201906
v 1.000003 25.916763 -9.201906
v 3.000002 25.681551 -9.201906
v 3.000002 25.916763 -9.201905
v 1.000002 27.916763 -8.999995
v 3.000002 27.916763 -8.999994
v 1.000002 27.916763 -9.201901
v 3.000002 27.916763 -9.201900
v -0.999997 25.916761 -9.201906
v -0.999997 25.916761 -9.000000
v -0.999998 27.916761 -9.201901
v -0.999998 27.916761 -8.999995
v -2.999998 25.916761 -9.201906
v -2.999998 25.916761 -9.000000
v -2.999998 27.916761 -9.201901
v -2.999998 27.916761 -8.999995
v -0.999997 23.916763 -9.201911
v -0.999997 23.916761 -9.000005
v -2.999997 23.916761 -9.201911
v -2.999997 23.916761 -9.000005
v -0.999996 21.916763 -9.201916
v -0.999996 21.916761 -9.000010
v -2.999996 21.916761 -9.201916
v -2.999996 21.916761 -9.000010
v -0.999996 21.916763 -9.201916
v -0.999996 21.916761 -9.000010
v -2.999996 21.916761 -9.201916
v -2.999996 21.916761 -9.000010
v -0.999995 19.916763 -9.201921
v -0.999995 19.916761 -9.000014
v -2.999995 19.916761 -9.201921
v -2.999995 19.916761 -9.000014
v 1.000003 23.916763 -9.201911
v 1.000003 23.916763 -9.000005
v 1.000004 21.916763 -9.201916
v 1.000004 21.916763 -9.000010
v 3.000003 23.916763 -9.201911
v 3.000003 23.916763 -9.000005
v 3.000004 21.916763 -9.201916
v 3.000004 21.916763 -9.000010
v 1.000005 19.916763 -9.201921
v 1.000005 19.916763 -9.000014
v 3.000005 19.916763 -9.201921
v 3.000005 19.916763 -9.000014
v 1.000006 17.916763 -9.201925
v 1.000006 17.916763 -9.000019
v 3.000006 17.916763 -9.201925
v 3.000006 17.916763 -9.000019
v -0.999994 17.916763 -9.201925
v -0.999994 17.916761 -9.000019
v -2.999994 17.916761 -9.201925
v -2.999994 17.916761 -9.000019
v 1.000005 19.916763 -9.201921
v 1.000005 19.916763 -9.000014
v 1.000006 17.916763 -9.201925
v 1.000006 17.916763 -9.000019
v 1.000007 15.916763 -9.201930
v 1.000007 15.916763 -9.000024
v 3.000007 15.916764 -9.201930
v 3.000007 15.916763 -9.000024
v 3.000006 17.916763 -9.201925
v 3.000006 17.916763 -9.000019
v 3.000007 15.916764 -9.201930
v 3.000007 15.916763 -9.000024
v 5.000006 17.916765 -9.201925
v 5.000006 17.916763 -9.000019
v 5.000007 15.916765 -9.201930
v 5.000007 15.916763 -9.000024
v 7.000006 17.916765 -9.201925
v 7.000006 17.916763 -9.000019
v 7.000007 15.916765 -9.201930
v 7.000007 15.916763 -9.000024
v 7.284229 17.916765 -9.201925
v 7.284229 17.916763 -9.000019
v 7.284229 15.916765 -9.201930
v 7.284229 15.916763 -9.000024
v 7.000007 15.916759 -7.000024
v 7.000006 17.916759 -7.000019
v 7.284229 15.916759 -7.000024
v 7.284229 17.916759 -7.000019
v 7.000007 15.916754 -5.000024
v 7.000006 17.916754 -5.000019
v 7.284229 15.916754 -5.000024
v 7.284229 17.916754 -5.000019
v 7.000007 15.916749 -2.927356
v 7.000006 17.916748 -2.927352
v 7.284229 15.916749 -2.927356
v 7.284229 17.916748 -2.927352
v -0.999995 19.916763 -9.201921
v -0.999995 19.916761 -9.000014
v 1.000005 19.916763 -9.201921
v 1.000005 19.916763 -9.000014
v 7.000007 15.916744 -0.927356
v 7.000006 17.916744 -0.927352
v 7.284229 15.916744 -0.927356
v 7.284229 17.916744 -0.927352
v 7.284229 13.916759 -7.000029
v 7.000007 13.916759 -7.000029
v 7.284229 13.916754 -5.000029
v 7.000007 13.916754 -5.000029
v 7.284229 11.916759 -7.000033
v 7.000007 11.916759 -7.000033
v 7.284229 11.916754 -5.000033
v 7.000007 11.916754 -5.000033
v 7.284229 13.916749 -3.000029
v 7.000007 13.916749 -3.000029
v 7.284229 11.916749 -3.000033
v 7.000007 11.916749 -3.000033
v 7.284229 13.916744 -1.000029
v 7.000007 13.916744 -1.000029
v 7.284229 11.916744 -1.000033
v 7.000007 11.916744 -1.000033
v 7.284229 11.916749 -3.000033
v 7.000007 11.916749 -3.000033
v 7.284229 11.916744 -1.000033
v 7.000007 11.916744 -1.000033
v 7.284229 9.916748 -3.000038
v 7.000007 9.916748 -3.000038
v 7.284229 9.916744 -1.000038
v 7.000007 9.916744 -1.000038
v 7.000007 15.916739 1.072644
v 7.000006 17.916740 1.072648
v 7.284229 15.916739 1.072644
v 7.284229 17.916740 1.072648
v 7.000007 15.916735 3.072644
v 7.000006 17.916735 3.072648
v 7.284229 15.916735 3.072644
v 7.284229 17.916735 3.072648
v 7.284229 13.916739 1.072639
v 7.000007 13.916739 1.072639
v 7.284229 13.916735 3.072639
v 7.000007 13.916735 3.072639
v 7.284229 15.916730 5.072643
v 7.000007 15.916730 5.072643
v 7.284229 13.916730 5.072639
v 7.000007 13.916730 5.072639
v 7.284229 11.916739 1.146020
v 7.000007 11.916739 1.146020
v 7.284229 9.916739 1.146015
v 7.000007 9.916739 1.146015
v 7.284229 11.916734 3.146020
v 7.000007 11.916734 3.146020
v 7.284229 9.916733 3.146015
v 7.000007 9.916733 3.146015
v 7.284229 11.916729 5.146020
v 7.000007 11.916729 5.146020
v 7.284229 9.916729 5.146015
v 7.000007 9.916729 5.146015
v 7.284229 11.916735 3.072634
v 7.000007 11.916735 3.072634
v 7.284229 11.916730 5.072634
v 7.000007 11.916730 5.072634
v 7.284229 11.916724 7.146020
v 7.000007 11.916724 7.146020
v 7.284229 9.916725 7.146015
v 7.000007 9.916725 7.146015
v 7.284229 11.916723 7.552911
v 7.000007 11.916723 7.552911
v 7.284229 9.916725 7.552906
v 7.000007 9.916725 7.552906
v 5.000007 9.916725 7.146015
v 5.000007 11.916724 7.146020
v 5.000007 9.916725 7.552906
v 5.000007 11.916723 7.552911
v 3.000007 9.916725 7.146015
v 3.000007 11.916724 7.146020
v 3.000007 9.916725 7.552906
v 3.000007 11.916723 7.552911
v 1.000007 9.916725 7.146015
v 1.000007 11.916724 7.146020
v 1.000007 9.916725 7.552906
v 1.000007 11.916723 7.552911
v -0.999993 9.916725 7.146015
v -0.999993 11.916724 7.146020
v -0.999993 9.916725 7.552906
v -0.999993 11.916723 7.552911
v 1.000007 7.916725 7.552906
v 1.000007 7.916725 7.146015
v -0.999993 7.916725 7.552906
v -0.999993 7.916725 7.146015
v 1.000007 5.916725 7.552906
v 1.000007 5.916725 7.146015
v -0.999993 5.916725 7.552906
v -0.999993 5.916725 7.146015
v 1.000007 3.916725 7.552906
v 1.000007 3.916725 7.146015
v -0.999993 3.916725 7.552906
v -0.999993 3.916725 7.146015
v 1.000007 1.916725 7.552906
v 1.000007 1.916725 7.146015
v -0.999993 1.916725 7.552906
v -0.999993 1.916725 7.146015
v 1.000007 -0.083275 7.552906
v 1.000007 -0.083275 7.146015
v -0.999993 -0.083275 7.552906
v -0.999993 -0.083275 7.146015
v 1.000007 -2.083275 7.552906
v 1.000007 -2.083275 7.146015
v -0.999993 -2.083275 7.552906
v -0.999993 -2.083275 7.146015
v -2.999993 -0.083275 7.552906
v -2.999993 -0.083275 7.146015
v -2.999993 -2.083275 7.552906
v -2.999993 -2.083275 7.146015
v -4.999993 -0.083275 7.552906
v -4.999993 -0.083275 7.146015
v -4.999993 -2.083275 7.552906
v -4.999993 -2.083275 7.146015
v -6.999993 -0.083275 7.552906
v -6.999993 -0.083275 7.146015
v -6.999993 -2.083275 7.552906
v -6.999993 -2.083275 7.146015
v -7.478230 -0.083275 7.552906
v -7.478230 -0.083275 7.146015
v -7.478230 -2.083275 7.552906
v -7.478230 -2.083275 7.146015
v -6.999993 -2.083275 5.146015
v -6.999993 -0.083275 5.146015
v -7.478230 -2.083275 5.146015
v -7.478230 -0.083275 5.146015
v -6.999993 -2.083275 3.146015
v -6.999993 -0.083275 3.146015
v -7.478230 -2.083275 3.146015
v -7.478230 -0.083275 3.146015
v -6.999993 -2.083275 1.146015
v -6.999993 -0.083275 1.146015
v -7.478230 -2.083275 1.146015
v -7.478230 -0.083275 1.146015
v -6.999993 -2.083275 -0.853985
v -6.999993 -0.083275 -0.853985
v -7.478230 -2.083275 -0.853985
v -7.478230 -0.083275 -0.853985
v -6.999993 -2.083275 -2.853985
v -6.999993 -0.083275 -2.853985
v -7.478230 -2.083275 -2.853985
v -7.478230 -0.083275 -2.853985
v -6.999993 -4.083275 5.146015
v -7.478230 -4.083275 5.146015
v -6.999993 -4.083275 3.146015
v -7.478230 -4.083275 3.146015
v -6.999993 -4.083275 1.146015
v -7.478230 -4.083275 1.146015
v -6.999993 -4.083275 -0.853985
v -7.478230 -4.083275 -0.853985
v -6.999993 -4.083275 -2.853985
v -7.478230 -4.083275 -2.853985
v -6.999993 -6.083275 5.146015
v -7.478230 -6.083275 5.146015
v -6.999993 -6.083275 3.146015
v -7.478230 -6.083275 3.146015
v -6.999993 -6.083275 1.146015
v -7.478230 -6.083275 1.146015
v -6.999993 -6.083275 -0.853985
v -7.478230 -6.083275 -0.853985
v -6.999993 -6.083275 -2.853985
v -7.478230 -6.083275 -2.853985
v -6.999993 -8.083275 5.146015
v -7.478230 -8.083275 5.146015
v -6.999993 -8.083275 3.146015
v -7.478230 -8.083275 3.146015
v -6.999993 -8.083275 1.146015
v -7.478230 -8.083275 1.146015
v -6.999993 -8.083275 -0.853985
v -7.478230 -8.083275 -0.853985
v -6.999993 -8.083275 -2.853985
v -7.478230 -8.083275 -2.853985
v -7.478230 -6.083275 -4.853985
v -7.478230 -8.083275 -4.853985
v -6.999993 -6.083275 -4.853985
v -6.999993 -8.083275 -4.853985
v -6.999993 -10.083275 -2.853985
v -7.478230 -10.083275 -2.853985
v -6.999993 -10.083275 -4.853985
v -7.478230 -10.083275 -4.853985
v -6.999993 -12.083275 -2.853985
v -7.478230 -12.083275 -2.853985
v -6.999993 -12.083275 -4.853985
v -7.478230 -12.083275 -4.853985
v -6.999993 -12.432861 -2.853985
v -7.478230 -12.432861 -2.853985
v -6.999993 -12.432861 -4.853985
v -7.478230 -12.432861 -4.853985
v -4.999993 -12.083275 -4.853985
v -4.999993 -12.083275 -2.853985
v -4.999993 -12.432861 -4.853985
v -4.999993 -12.432861 -2.853985
v -2.999993 -12.083275 -4.853985
v -2.999993 -12.083275 -2.853985
v -2.999993 -12.432861 -4.853985
v -2.999993 -12.432861 -2.853985
v -0.999993 -12.083275 -4.853985
v -0.999993 -12.083275 -2.853985
v -0.999993 -12.432861 -4.853985
v -0.999993 -12.432861 -2.853985
v -2.999993 -12.083275 -0.853985
v -2.999993 -12.432861 -0.853985
v -0.999993 -12.083275 -0.853985
v -0.999993 -12.432861 -0.853985
v -2.999993 -12.083275 1.146015
v -2.999993 -12.432861 1.146015
v -0.999993 -12.083275 1.146015
v -0.999993 -12.432861 1.146015
v -2.999993 -12.083275 3.146015
v -2.999993 -12.432861 3.146015
v -0.999993 -12.083275 3.146015
v -0.999993 -12.432861 3.146015
v -4.999993 -12.083275 1.146015
v -4.999993 -12.432861 1.146015
v -4.999993 -12.083275 3.146015
v -4.999993 -12.432861 3.146015
v 1.000007 -12.083275 1.146015
v 1.000007 -12.432861 1.146015
v 1.000007 -12.083275 3.146015
v 1.000007 -12.432861 3.146015
v -2.999993 -12.083275 5.146015
v -2.999993 -12.432861 5.146015
v -0.999993 -12.083275 5.146015
v -0.999993 -12.432861 5.146015
v -4.999993 -12.083275 5.146015
v -4.999993 -12.432861 5.146015
v 1.000007 -12.083275 5.146015
v 1.000007 -12.432861 5.146015
v -2.999993 -12.083275 7.146015
v -2.999993 -12.432861 7.146015
v -0.999993 -12.083275 7.146015
v -0.999993 -12.432861 7.146015
v -4.999993 -12.083275 7.146015
v -4.999993 -12.432861 7.146015
v 1.000007 -12.083275 7.146015
v 1.000007 -12.432861 7.146015
vn 0.0000 -1.0000 -0.0000
vn 0.0000 1.0000 0.0000
vn -0.0000 -0.0000 1.0000
vn -1.0000 -0.0000 -0.0000
vn 1.0000 0.0000 0.0000
vn 0.0000 0.0000 -1.0000
usemtl Material
s off
f 1//1 2//1 3//1 4//1
f 5//2 8//2 7//2 6//2
f 6//3 2//3 10//3 12//3
f 2//3 6//3 7//3 3//3
f 3//4 7//4 8//4 4//4
f 4//4 8//4 20//4 18//4
f 11//2 12//2 16//2 15//2
f 8//2 5//2 19//2 20//2
f 2//1 1//1 9//1 10//1
f 5//2 6//2 12//2 11//2
f 13//5 15//5 16//5 14//5
f 13//1 9//1 21//1 23//1
f 12//3 10//3 14//3 16//3
f 10//1 9//1 13//1 14//1
f 24//5 23//5 31//5 32//5
f 23//1 21//1 29//1 31//1
f 17//1 18//1 26//1 25//1
f 5//2 11//2 22//2 19//2
f 11//2 15//2 24//2 22//2
f 1//1 4//1 18//1 17//1
f 15//5 13//5 23//5 24//5
f 9//1 1//1 17//1 21//1
f 27//6 25//6 26//6 28//6
f 29//1 25//1 33//1 35//1
f 29//6 30//6 32//6 31//6
f 19//2 22//2 30//2 27//2
f 20//2 19//2 27//2 28//2
f 22//2 24//2 32//2 30//2
f 21//1 17//1 25//1 29//1
f 18//4 20//4 28//4 26//4
f 36//5 35//5 39//5 40//5
f 30//5 29//5 35//5 36//5
f 27//2 30//2 36//2 34//2
f 25//4 27//4 34//4 33//4
f 38//3 40//3 46//3 45//3
f 34//2 36//2 40//2 38//2
f 33//4 34//4 38//4 37//4
f 35//1 33//1 37//1 39//1
f 41//6 42//6 44//6 43//6
f 37//4 38//4 42//4 41//4
f 39//1 37//1 41//1 43//1
f 40//5 39//5 43//5 44//5
f 45//2 46//2 48//2 47//2
f 42//1 38//1 50//1 49//1
f 40//5 44//5 48//5 46//5
f 44//6 42//6 47//6 48//6
f 50//3 52//3 56//3 54//3
f 47//6 42//6 49//6 51//6
f 38//3 45//3 52//3 50//3
f 45//2 47//2 51//2 52//2
f 53//4 54//4 56//4 55//4
f 50//3 54//3 60//3 58//3
f 51//6 49//6 53//6 55//6
f 52//2 51//2 55//2 56//2
f 58//3 60//3 64//3 62//3
f 49//5 50//5 58//5 57//5
f 53//6 49//6 57//6 59//6
f 54//4 53//4 59//4 60//4
f 61//3 62//3 66//3 65//3
f 62//4 61//4 129//4 130//4
f 59//6 57//6 61//6 63//6
f 60//4 59//4 63//4 64//4
f 67//6 65//6 69//6 71//6
f 63//3 61//3 65//3 67//3
f 64//3 63//3 67//3 68//3
f 62//3 64//3 68//3 66//3
f 70//3 72//3 92//3 90//3
f 68//4 67//4 71//4 72//4
f 66//3 68//3 72//3 70//3
f 65//5 66//5 70//5 69//5
f 75//6 73//6 77//6 79//6
f 58//3 62//3 76//3 74//3
f 57//2 58//2 74//2 73//2
f 61//6 57//6 73//6 75//6
f 77//5 78//5 80//5 79//5
f 79//5 80//5 84//5 83//5
f 74//3 76//3 80//3 78//3
f 73//2 74//2 78//2 77//2
f 81//6 83//6 87//6 85//6
f 80//3 76//3 82//3 84//3
f 76//4 75//4 81//4 82//4
f 75//6 79//6 83//6 81//6
f 88//3 86//3 98//3 100//3
f 82//4 81//4 85//4 86//4
f 84//3 82//3 86//3 88//3
f 83//5 84//5 88//5 87//5
f 89//1 90//1 92//1 91//1
f 89//6 69//6 93//6 95//6
f 71//6 69//6 89//6 91//6
f 72//4 71//4 91//4 92//4
f 93//5 94//5 96//5 95//5
f 69//2 70//2 94//2 93//2
f 90//1 89//1 95//1 96//1
f 70//3 90//3 96//3 94//3
f 98//1 97//1 99//1 100//1
f 88//3 100//3 104//3 102//3
f 85//6 87//6 99//6 97//6
f 86//4 85//4 97//4 98//4
f 102//3 104//3 108//3 106//3
f 100//3 99//3 103//3 104//3
f 87//3 88//3 102//3 101//3
f 99//3 87//3 101//3 103//3
f 105//2 106//2 110//2 109//2
f 101//2 102//2 106//2 105//2
f 103//6 101//6 105//6 107//6
f 104//1 103//1 107//1 108//1
f 111//6 109//6 113//6 115//6
f 107//6 105//6 109//6 111//6
f 108//1 107//1 111//1 112//1
f 106//3 108//3 112//3 110//3
f 113//5 114//5 116//5 115//5
f 112//1 111//1 115//1 116//1
f 112//1 116//1 119//1 117//1
f 109//2 110//2 114//2 113//2
f 120//2 118//2 122//2 124//2
f 116//5 114//5 120//5 119//5
f 114//2 110//2 118//2 120//2
f 110//4 112//4 117//4 118//4
f 123//5 124//5 128//5 127//5
f 119//5 120//5 124//5 123//5
f 119//5 123//5 139//5 137//5
f 118//4 117//4 121//4 122//4
f 125//1 127//1 135//1 133//1
f 121//1 123//1 127//1 125//1
f 122//4 121//4 125//4 126//4
f 124//2 122//2 126//2 128//2
f 130//1 129//1 131//1 132//1
f 76//3 62//3 130//3 132//3
f 75//5 76//5 132//5 131//5
f 61//6 75//6 131//6 129//6
f 133//1 135//1 163//1 161//1
f 126//4 125//4 133//4 134//4
f 128//2 126//2 134//2 136//2
f 127//5 128//5 136//5 135//5
f 137//5 139//5 143//5 141//5
f 123//3 121//3 140//3 139//3
f 121//4 117//4 138//4 140//4
f 117//6 119//6 137//6 138//6
f 142//1 141//1 143//1 144//1
f 138//6 137//6 141//6 142//6
f 140//4 138//4 142//4 144//4
f 144//1 143//1 147//1 148//1
f 147//5 145//5 149//5 151//5
f 139//2 140//2 146//2 145//2
f 143//5 139//5 145//5 147//5
f 140//4 144//4 148//4 146//4
f 149//3 150//3 152//3 151//3
f 145//2 146//2 150//2 149//2
f 146//4 148//4 152//4 150//4
f 152//3 148//3 154//3 156//3
f 156//4 154//4 158//4 160//4
f 147//3 151//3 155//3 153//3
f 151//3 152//3 156//3 155//3
f 148//3 147//3 153//3 154//3
f 158//1 157//1 159//1 160//1
f 159//5 155//5 177//5 179//5
f 153//5 155//5 159//5 157//5
f 154//6 153//6 157//6 158//6
f 164//2 162//2 166//2 168//2
f 134//4 133//4 161//4 162//4
f 136//2 134//2 162//2 164//2
f 135//5 136//5 164//5 163//5
f 166//3 165//3 167//3 168//3
f 163//5 164//5 168//5 167//5
f 163//5 167//5 171//5 169//5
f 162//4 161//4 165//4 166//4
f 170//1 169//1 171//1 172//1
f 171//5 167//5 173//5 175//5
f 165//4 161//4 170//4 172//4
f 161//6 163//6 169//6 170//6
f 173//3 174//3 176//3 175//3
f 167//2 165//2 174//2 173//2
f 176//4 172//4 190//4 192//4
f 165//4 172//4 176//4 174//4
f 178//4 180//4 184//4 182//4
f 155//2 156//2 178//2 177//2
f 156//4 160//4 180//4 178//4
f 160//1 159//1 179//1 180//1
f 182//4 184//4 188//4 186//4
f 177//2 178//2 182//2 181//2
f 179//5 177//5 181//5 183//5
f 180//1 179//1 183//1 184//1
f 187//5 185//5 193//5 195//5
f 181//2 182//2 186//2 185//2
f 183//5 181//5 185//5 187//5
f 184//1 183//1 187//1 188//1
f 190//1 189//1 191//1 192//1
f 171//5 175//5 191//5 189//5
f 175//3 176//3 192//3 191//3
f 172//6 171//6 189//6 190//6
f 193//2 194//2 198//2 197//2
f 188//1 187//1 195//1 196//1
f 186//4 188//4 196//4 194//4
f 185//2 186//2 194//2 193//2
f 197//3 198//3 200//3 199//3
f 195//5 193//5 197//5 199//5
f 196//1 195//1 199//1 200//1
f 198//2 194//2 202//2 204//2
f 204//2 202//2 206//2 208//2
f 200//3 198//3 204//3 203//3
f 196//1 200//1 203//1 201//1
f 194//6 196//6 201//6 202//6
f 205//1 207//1 211//1 209//1
f 202//6 201//6 205//6 206//6
f 201//1 203//1 207//1 205//1
f 203//3 204//3 208//3 207//3
f 211//3 212//3 216//3 215//3
f 207//3 208//3 212//3 211//3
f 208//2 206//2 210//2 212//2
f 206//6 205//6 209//6 210//6
f 214//4 213//4 215//4 216//4
f 212//2 210//2 214//2 216//2
f 210//6 209//6 213//6 214//6
f 213//6 209//6 218//6 220//6
f 220//6 218//6 222//6 224//6
f 211//3 215//3 219//3 217//3
f 215//4 213//4 220//4 219//4
f 209//5 211//5 217//5 218//5
f 221//3 223//3 227//3 225//3
f 219//4 220//4 224//4 223//4
f 217//3 219//3 223//3 221//3
f 218//5 217//5 221//5 222//5
f 225//3 227//3 231//3 229//3
f 222//5 221//5 225//5 226//5
f 224//6 222//6 226//6 228//6
f 223//4 224//4 228//4 227//4
f 232//6 230//6 234//6 236//6
f 226//5 225//5 229//5 230//5
f 228//6 226//6 230//6 232//6
f 227//4 228//4 232//4 231//4
f 233//3 235//3 239//3 237//3
f 231//4 232//4 236//4 235//4
f 229//3 231//3 235//3 233//3
f 230//5 229//5 233//5 234//5
f 238//1 237//1 239//1 240//1
f 234//5 233//5 237//5 238//5
f 236//6 234//6 238//6 240//6
f 236//6 240//6 244//6 242//6
f 242//6 244//6 248//6 246//6
f 240//1 239//1 243//1 244//1
f 235//2 236//2 242//2 241//2
f 239//3 235//3 241//3 243//3
f 247//3 245//3 249//3 251//3
f 244//1 243//1 247//1 248//1
f 243//3 241//3 245//3 247//3
f 241//2 242//2 246//2 245//2
f 250//5 252//5 257//5 258//5
f 245//2 246//2 250//2 249//2
f 246//6 248//6 252//6 250//6
f 248//1 247//1 251//1 252//1
f 253//4 254//4 256//4 255//4
f 252//1 251//1 255//1 256//1
f 251//3 249//3 253//3 255//3
f 249//2 250//2 254//2 253//2
f 275//6 273//6 285//6 286//6
f 252//1 256//1 259//1 257//1
f 254//2 250//2 258//2 260//2
f 256//4 254//4 260//4 259//4
f 264//2 262//2 266//2 268//2
f 258//5 257//5 261//5 262//5
f 260//2 258//2 262//2 264//2
f 259//4 260//4 264//4 263//4
f 273//5 269//5 283//5 285//5
f 263//4 264//4 268//4 267//4
f 261//5 257//5 277//5 279//5
f 262//5 261//5 265//5 266//5
f 265//5 261//5 279//5 281//5
f 266//5 265//5 269//5 270//5
f 268//2 266//2 270//2 272//2
f 267//4 268//4 272//4 271//4
f 274//6 273//6 275//6 276//6
f 270//5 269//5 273//5 274//5
f 272//2 270//2 274//2 276//2
f 271//4 272//4 276//4 275//4
f 280//4 282//4 292//4 290//4
f 282//4 284//4 294//4 292//4
f 284//4 286//4 296//4 294//4
f 277//3 278//3 288//3 287//3
f 267//4 271//4 284//4 282//4
f 263//4 267//4 282//4 280//4
f 259//4 263//4 280//4 278//4
f 269//5 265//5 281//5 283//5
f 271//4 275//4 286//4 284//4
f 257//3 259//3 278//3 277//3
f 295//5 293//5 303//5 305//5
f 290//4 292//4 302//4 300//4
f 292//4 294//4 304//4 302//4
f 294//4 296//4 306//4 304//4
f 285//5 283//5 293//5 295//5
f 278//4 280//4 290//4 288//4
f 283//5 281//5 291//5 293//5
f 281//5 279//5 289//5 291//5
f 279//5 277//5 287//5 289//5
f 286//6 285//6 295//6 296//6
f 297//1 298//1 300//1 299//1
f 301//1 302//1 304//1 303//1
f 299//1 300//1 302//1 301//1
f 303//1 304//1 306//1 305//1
f 288//4 290//4 300//4 298//4
f 293//5 291//5 301//5 303//5
f 291//5 289//5 299//5 301//5
f 289//5 287//5 297//5 299//5
f 296//2 295//2 309//2 307//2
f 287//3 288//3 298//3 297//3
f 307//6 309//6 310//6 308//6
f 305//3 306//3 312//3 311//3
f 295//5 305//5 310//5 309//5
f 306//4 296//4 307//4 308//4
f 312//4 314//4 318//4 316//4
f 306//4 308//4 314//4 312//4
f 308//6 310//6 313//6 314//6
f 310//5 305//5 311//5 313//5
f 317//2 315//2 324//2 323//2
f 311//3 312//3 316//3 315//3
f 313//5 311//5 315//5 317//5
f 314//6 313//6 317//6 318//6
f 319//1 320//1 322//1 321//1
f 318//6 317//6 321//6 322//6
f 316//4 318//4 322//4 320//4
f 315//3 316//3 320//3 319//3
f 324//3 326//3 330//3 328//3
f 315//3 319//3 326//3 324//3
f 321//6 317//6 323//6 325//6
f 319//1 321//1 325//1 326//1
f 329//6 327//6 331//6 333//6
f 323//2 324//2 328//2 327//2
f 325//6 323//6 327//6 329//6
f 326//1 325//1 329//1 330//1
f 331//5 332//5 334//5 333//5
f 330//1 329//1 333//1 334//1
f 330//1 334//1 338//1 336//1
f 327//2 328//2 332//2 331//2
f 336//1 338//1 342//1 340//1
f 334//5 332//5 337//5 338//5
f 332//2 328//2 335//2 337//2
f 328//4 330//4 336//4 335//4
f 341//2 339//2 343//2 345//2
f 335//4 336//4 340//4 339//4
f 337//2 335//2 339//2 341//2
f 338//5 337//5 341//5 342//5
f 343//2 349//2 359//2 355//2
f 346//1 342//1 352//1 354//1
f 340//1 342//1 346//1 344//1
f 343//2 339//2 347//2 349//2
f 347//4 348//4 350//4 349//4
f 344//1 346//1 358//1 356//1
f 340//1 344//1 350//1 348//1
f 339//6 340//6 348//6 347//6
f 352//5 351//5 353//5 354//5
f 342//6 341//6 351//6 352//6
f 341//2 345//2 353//2 351//2
f 354//5 353//5 361//5 362//5
f 356//1 358//1 366//1 364//1
f 359//4 360//4 368//4 367//4
f 360//1 356//1 364//1 368//1
f 349//4 350//4 360//4 359//4
f 350//1 344//1 356//1 360//1
f 345//2 343//2 355//2 357//2
f 353//2 345//2 357//2 361//2
f 346//1 354//1 362//1 358//1
f 363//3 364//3 366//3 365//3
f 364//3 363//3 367//3 368//3
f 365//3 366//3 370//3 369//3
f 361//2 357//2 365//2 369//2
f 362//5 361//5 369//5 370//5
f 355//2 359//2 367//2 363//2
f 357//2 355//2 363//2 365//2
f 358//1 362//1 370//1 366//1
