# Blender v2.79 (sub 0) OBJ File: 'Level Picker 1.blend'
# www.blender.org
mtllib Level Picker 1.mtl
o Cube
v 1.000000 1.010284 -1.000000
v 1.000000 1.010284 1.000000
v -1.000000 1.010284 1.000000
v -1.000000 1.010284 -1.000000
v 1.000000 1.245497 -0.999999
v 0.999999 1.245497 1.000001
v -1.000000 1.245497 1.000000
v -1.000000 1.245497 -1.000000
v 3.000000 1.010285 -0.999999
v 3.000000 1.010285 1.000001
v 3.000000 1.245497 -0.999999
v 2.999999 1.245497 1.000001
v 5.000000 1.010286 -0.999999
v 5.000000 1.010286 1.000001
v 5.000000 1.245499 -0.999998
v 4.999999 1.245499 1.000002
v 1.000000 1.010288 -3.000000
v -0.999999 1.010288 -3.000000
v 1.000001 1.245501 -3.000000
v -0.999999 1.245501 -3.000000
v 3.000000 1.010289 -3.000000
v 3.000001 1.245501 -2.999999
v 5.000000 1.010290 -2.999999
v 5.000001 1.245502 -2.999998
v 1.000001 1.010292 -5.000000
v -0.999999 1.010292 -5.000000
v 1.000002 1.245505 -5.000000
v -0.999999 1.245505 -5.000000
v 3.000001 1.010293 -5.000000
v 3.000001 1.245505 -4.999999
v 5.000001 1.010294 -4.999999
v 5.000001 1.245507 -4.999998
v -3.000000 1.010281 -1.000001
v -3.000000 1.245494 -1.000001
v -2.999999 1.010285 -3.000001
v -3.000000 1.245498 -3.000000
v -5.000000 1.010277 -1.000001
v -5.000000 1.245490 -1.000001
v -4.999999 1.010281 -3.000001
v -5.000000 1.245494 -3.000001
v -7.000000 1.010273 -1.000002
v -7.000000 1.245486 -1.000002
v -6.999999 1.010277 -3.000002
v -7.000000 1.245490 -3.000001
v -9.000000 1.010269 -1.000002
v -9.000000 1.245482 -1.000002
v -8.999999 1.010273 -3.000002
v -9.000000 1.245486 -3.000002
v -11.000000 1.010265 -1.000003
v -11.000000 1.245478 -1.000003
v -10.999999 1.010269 -3.000003
v -11.000000 1.245482 -3.000002
v -13.000000 1.010261 -1.000003
v -13.000000 1.245474 -1.000003
v -12.999999 1.010265 -3.000003
v -13.000000 1.245478 -3.000003
v -15.000000 1.010257 -1.000004
v -15.000000 1.245470 -1.000003
v -14.999999 1.010261 -3.000004
v -15.000000 1.245474 -3.000003
v -1.000000 1.010284 -1.000000
v -1.000000 1.245497 -1.000000
v -3.000000 1.010281 -1.000001
v -3.000000 1.245494 -1.000001
v -5.000000 1.010277 -1.000001
v -5.000000 1.245490 -1.000001
v -7.000000 1.010273 -1.000002
v -7.000000 1.245486 -1.000002
v -5.000000 1.245487 0.999999
v -3.000000 1.245491 0.999999
v -7.000000 1.010270 0.999998
v -7.000000 1.245483 0.999998
v -9.000000 1.010266 0.999998
v -9.000000 1.245479 0.999998
v -3.000000 1.010278 0.999999
v -3.000000 1.245491 0.999999
v -5.000000 1.010274 0.999999
v -5.000000 1.245487 0.999999
v -7.000000 1.010270 0.999998
v -7.000000 1.245483 0.999998
v -2.999999 1.010289 -5.000001
v -2.999999 1.245502 -5.000000
v -4.999999 1.010285 -5.000001
v -4.999999 1.245498 -5.000001
v -6.999999 1.010281 -5.000002
v -6.999999 1.245494 -5.000001
v -8.999999 1.010277 -5.000002
v -9.000000 1.245490 -5.000002
v -17.000000 1.010253 -1.000004
v -17.000000 1.245466 -1.000004
v -17.000000 1.010257 -3.000004
v -17.000000 1.245470 -3.000004
v -11.000000 1.010262 0.999997
v -11.000000 1.245475 0.999997
v -13.000000 1.010258 0.999997
v -13.000000 1.245471 0.999997
v -15.000000 1.010254 0.999996
v -15.000000 1.245467 0.999997
v -17.000000 1.010250 0.999996
v -17.000000 1.245463 0.999996
v -10.999999 1.010273 -5.000003
v -11.000000 1.245486 -5.000002
v -12.999999 1.010269 -5.000003
v -13.000000 1.245482 -5.000003
v -14.999999 1.010265 -5.000004
v -15.000000 1.245478 -5.000003
v -17.000000 1.010261 -5.000004
v -17.000000 1.245474 -5.000004
vn 0.0000 -1.0000 -0.0000
vn 0.0000 1.0000 -0.0000
vn -0.0000 -0.0000 1.0000
vn -1.0000 -0.0000 -0.0000
vn 1.0000 -0.0000 0.0000
vn 0.0000 0.0000 -1.0000
usemtl Material
s off
f 1//1 2//1 3//1 4//1
f 5//2 8//2 7//2 6//2
f 5//2 6//2 12//2 11//2
f 2//3 6//3 7//3 3//3
f 3//4 7//4 8//4 4//4
f 9//1 1//1 17//1 21//1
f 10//1 9//1 13//1 14//1
f 6//3 2//3 10//3 12//3
f 15//5 13//5 23//5 24//5
f 2//1 1//1 9//1 10//1
f 13//5 15//5 16//5 14//5
f 11//2 12//2 16//2 15//2
f 1//1 4//1 18//1 17//1
f 12//3 10//3 14//3 16//3
f 17//1 18//1 26//1 25//1
f 18//4 20//4 28//4 26//4
f 21//1 17//1 25//1 29//1
f 5//2 11//2 22//2 19//2
f 13//1 9//1 21//1 23//1
f 8//2 5//2 19//2 20//2
f 8//2 20//2 36//2 34//2
f 11//2 15//2 24//2 22//2
f 27//6 25//6 26//6 28//6
f 25//6 27//6 30//6 29//6
f 29//6 30//6 32//6 31//6
f 22//2 24//2 32//2 30//2
f 24//5 23//5 31//5 32//5
f 19//2 22//2 30//2 27//2
f 20//2 19//2 27//2 28//2
f 23//1 21//1 29//1 31//1
f 34//2 36//2 40//2 38//2
f 20//6 18//6 35//6 36//6
f 18//1 4//1 33//1 35//1
f 8//3 34//3 64//3 62//3
f 44//2 40//2 84//2 86//2
f 35//1 33//1 37//1 39//1
f 40//2 36//2 82//2 84//2
f 65//1 63//1 75//1 77//1
f 48//2 44//2 86//2 88//2
f 33//3 4//3 61//3 63//3
f 38//2 40//2 44//2 42//2
f 39//1 37//1 41//1 43//1
f 46//2 48//2 52//2 50//2
f 67//1 65//1 77//1 79//1
f 42//2 44//2 48//2 46//2
f 43//1 41//1 45//1 47//1
f 60//2 56//2 104//2 106//2
f 47//1 45//1 49//1 51//1
f 48//6 47//6 51//6 52//6
f 45//3 46//3 50//3 49//3
f 49//5 50//5 94//5 93//5
f 53//1 49//1 93//1 95//1
f 50//2 52//2 56//2 54//2
f 51//1 49//1 53//1 55//1
f 58//2 60//2 92//2 90//2
f 54//2 56//2 60//2 58//2
f 55//1 53//1 57//1 59//1
f 56//2 52//2 102//2 104//2
f 61//3 62//3 64//3 63//3
f 45//1 41//1 71//1 73//1
f 46//4 45//4 73//4 74//4
f 37//3 33//3 63//3 65//3
f 41//3 37//3 65//3 67//3
f 4//3 8//3 62//3 61//3
f 64//3 34//3 70//3 76//3
f 38//3 42//3 68//3 66//3
f 72//3 71//3 79//3 80//3
f 71//3 72//3 74//3 73//3
f 75//3 76//3 78//3 77//3
f 77//3 78//3 80//3 79//3
f 70//3 69//3 78//3 76//3
f 41//3 67//3 79//3 71//3
f 68//3 42//3 72//3 80//3
f 63//5 64//5 76//5 75//5
f 66//2 68//2 80//2 78//2
f 34//2 38//2 69//2 70//2
f 42//2 46//2 74//2 72//2
f 38//3 66//3 78//3 69//3
f 84//6 83//6 85//6 86//6
f 82//6 81//6 83//6 84//6
f 86//6 85//6 87//6 88//6
f 43//1 47//1 87//1 85//1
f 47//4 48//4 88//4 87//4
f 35//1 39//1 83//1 81//1
f 36//5 35//5 81//5 82//5
f 39//1 43//1 85//1 83//1
f 89//4 90//4 92//4 91//4
f 59//1 57//1 89//1 91//1
f 52//5 51//5 101//5 102//5
f 58//2 90//2 100//2 98//2
f 95//3 96//3 98//3 97//3
f 93//3 94//3 96//3 95//3
f 97//3 98//3 100//3 99//3
f 89//1 57//1 97//1 99//1
f 54//2 58//2 98//2 96//2
f 90//4 89//4 99//4 100//4
f 50//2 54//2 96//2 94//2
f 57//1 53//1 95//1 97//1
f 102//6 101//6 103//6 104//6
f 104//6 103//6 105//6 106//6
f 106//6 105//6 107//6 108//6
f 92//2 60//2 106//2 108//2
f 91//4 92//4 108//4 107//4
f 55//1 59//1 105//1 103//1
f 51//1 55//1 103//1 101//1
f 59//1 91//1 107//1 105//1
