# Blender v2.79 (sub 0) OBJ File: 'Level Cube.blend'
# www.blender.org
mtllib Level Cube.mtl
o Cube
v 6.306767 2.808002 -6.952713
v 6.306767 -11.191998 -6.952714
v -6.693233 -11.191998 -6.952714
v -6.693232 2.808002 -6.952713
v 6.306767 2.808002 -6.717501
v 6.306767 -11.191999 -6.717501
v -6.693233 -11.191998 -6.717501
v -6.693233 2.808002 -6.717501
v 7.306767 2.808002 -6.952712
v 7.306767 -11.191998 -6.952712
v 7.306767 2.808002 -6.717499
v 7.306767 -11.191999 -6.717499
v 6.306767 -12.191998 -6.952716
v -6.693233 -12.191998 -6.952716
v 6.306767 -12.191999 -6.717504
v -6.693233 -12.191998 -6.717504
v -6.693233 -11.191998 -6.952714
v -6.693232 2.808002 -6.952713
v -6.693233 -11.191998 -6.717501
v -6.693233 2.808002 -6.717501
v -7.693233 -11.191998 -6.952715
v -7.693232 2.808002 -6.952715
v -7.693233 -11.191998 -6.717503
v -7.693233 2.808002 -6.717502
v 6.306767 3.808002 -6.952712
v -6.693232 3.808002 -6.952712
v 6.306767 3.808002 -6.717499
v -6.693233 3.808002 -6.717499
v 6.306741 2.808001 6.282499
v 6.306740 -11.191999 6.282498
v 7.306741 2.808001 6.282502
v 7.306740 -11.191999 6.282501
v 6.306767 -11.192026 6.282498
v -6.693233 -11.192026 6.282498
v 6.306767 -12.192026 6.282496
v -6.693233 -12.192026 6.282496
v -6.693248 -11.191999 6.282498
v -6.693247 2.808002 6.282499
v -7.693248 -11.191999 6.282497
v -7.693247 2.808002 6.282498
v 6.306767 2.807978 6.282499
v -6.693233 2.807978 6.282499
v 6.306767 3.807978 6.282501
v -6.693233 3.807978 6.282501
v 6.306767 2.807978 6.282499
v -6.693233 2.807978 6.282499
v 6.306767 3.807978 6.282501
v -6.693233 3.807978 6.282501
v 6.306767 2.807976 7.282499
v -6.693233 2.807976 7.282499
v 6.306767 3.807976 7.282501
v -6.693233 3.807976 7.282501
v 6.306767 -11.192022 6.282471
v -6.693233 -11.192022 6.282471
v 6.306767 -11.192024 7.282471
v -6.693233 -11.192024 7.282471
vn 0.0000 0.0000 -1.0000
vn -0.0000 -0.0000 1.0000
vn 0.0000 1.0000 0.0000
vn 1.0000 -0.0000 0.0000
vn -1.0000 0.0000 -0.0000
vn 0.0000 -1.0000 -0.0000
usemtl Material
s off
f 1//1 2//1 3//1 4//1
f 5//2 8//2 7//2 6//2
f 2//1 1//1 9//1 10//1
f 3//1 2//1 13//1 14//1
f 7//2 8//2 20//2 19//2
f 27//3 28//3 44//3 43//3
f 9//4 11//4 12//4 10//4
f 5//5 6//5 30//5 29//5
f 6//6 2//6 10//6 12//6
f 1//3 5//3 11//3 9//3
f 13//6 15//6 16//6 14//6
f 16//6 15//6 35//6 36//6
f 7//5 3//5 14//5 16//5
f 2//4 6//4 15//4 13//4
f 23//6 19//6 37//6 39//6
f 8//2 4//2 18//2 20//2
f 4//2 3//2 17//2 18//2
f 3//2 7//2 19//2 17//2
f 21//5 23//5 24//5 22//5
f 17//6 19//6 23//6 21//6
f 20//3 18//3 22//3 24//3
f 18//1 17//1 21//1 22//1
f 27//3 25//3 26//3 28//3
f 4//5 8//5 28//5 26//5
f 1//1 4//1 26//1 25//1
f 5//4 1//4 25//4 27//4
f 29//2 30//2 32//2 31//2
f 11//3 5//3 29//3 31//3
f 12//4 11//4 31//4 32//4
f 6//6 12//6 32//6 30//6
f 33//2 34//2 36//2 35//2
f 6//3 7//3 34//3 33//3
f 7//5 16//5 36//5 34//5
f 15//4 6//4 33//4 35//4
f 37//2 38//2 40//2 39//2
f 24//5 23//5 39//5 40//5
f 19//4 20//4 38//4 37//4
f 20//3 24//3 40//3 38//3
f 41//2 43//2 47//2 45//2
f 5//4 27//4 43//4 41//4
f 8//6 5//6 41//6 42//6
f 28//5 8//5 42//5 44//5
f 48//5 46//5 50//5 52//5
f 42//2 41//2 45//2 46//2
f 44//2 42//2 46//2 48//2
f 43//2 44//2 48//2 47//2
f 50//2 49//2 51//2 52//2
f 47//3 48//3 52//3 51//3
f 45//4 47//4 51//4 49//4
f 50//5 46//5 54//5 56//5
f 54//6 53//6 55//6 56//6
f 49//2 50//2 56//2 55//2
f 45//4 49//4 55//4 53//4
f 46//1 45//1 53//1 54//1
