# Blender v2.79 (sub 0) OBJ File: 'Level 1.blend'
# www.blender.org
mtllib Level 1.mtl
o Cube
v 1.388970 0.446010 -1.677107
v 1.388970 0.446010 -0.079912
v -0.208225 0.446010 -0.079912
v -0.208225 0.446010 -1.677107
v 1.388971 0.644946 -1.677107
v 1.388970 0.644946 -0.079911
v -0.208225 0.644946 -0.079912
v -0.208225 0.644946 -1.677107
v 2.986166 0.446011 -1.677107
v 2.986166 0.446011 -0.079911
v 2.986166 0.644946 -1.677106
v 2.986166 0.644946 -0.079911
v -1.805421 0.446008 -0.079912
v -1.805420 0.446008 -1.677108
v -1.805421 0.644944 -0.079912
v -1.805421 0.644944 -1.677108
v 1.388970 0.446009 1.517284
v -0.208226 0.446009 1.517284
v 1.388969 0.644944 1.517284
v -0.208226 0.644944 1.517284
v 2.986166 0.446009 1.517284
v 2.986165 0.644945 1.517285
v -1.805421 0.446007 1.517283
v -1.805421 0.644943 1.517283
v 1.388970 0.446008 3.114480
v -0.208226 0.446008 3.114480
v 1.388969 0.644943 3.114480
v -0.208226 0.644943 3.114479
v 2.986165 0.446008 3.114480
v 2.986165 0.644944 3.114480
v -1.805421 0.446006 3.114479
v -1.805422 0.644942 3.114479
v 1.388970 0.446008 3.114480
v -0.208226 0.446008 3.114480
v 1.388969 0.644943 3.114480
v -0.208226 0.644943 3.114479
v 1.388971 0.446013 -3.274302
v -0.208224 0.446013 -3.274303
v 1.388971 0.644948 -3.274302
v -0.208225 0.644948 -3.274302
v 1.388971 0.446016 -4.871498
v -0.208224 0.446016 -4.871499
v 1.388972 0.644952 -4.871498
v -0.208224 0.644952 -4.871498
v 1.388971 0.446017 -5.153040
v -0.208224 0.446017 -5.153040
v 1.388972 0.644952 -5.153039
v -0.208224 0.644952 -5.153040
v 1.388972 2.242147 -4.871493
v -0.208224 2.242147 -4.871494
v 1.388972 2.242148 -5.153035
v -0.208224 2.242148 -5.153035
v 1.388972 3.839343 -4.871489
v -0.208224 3.839343 -4.871490
v 1.388972 3.839343 -5.153030
v -0.208224 3.839343 -5.153031
v 2.986167 2.242148 -5.153034
v 2.986167 2.242147 -4.871493
v 2.986167 3.839343 -5.153030
v 2.986167 3.839343 -4.871489
v 3.280076 2.242148 -5.153034
v 3.280076 2.242147 -4.871493
v 3.280076 3.839343 -5.153030
v 3.280076 3.839343 -4.871489
v 2.986167 3.839338 -3.274293
v 2.986167 2.242143 -3.274297
v 3.280076 3.839338 -3.274293
v 3.280076 2.242143 -3.274297
v 2.986167 3.839334 -1.677098
v 2.986167 2.242139 -1.677102
v 3.280076 3.839334 -1.677098
v 3.280076 2.242139 -1.677102
v 3.280076 5.436534 -3.274289
v 2.986167 5.436534 -3.274289
v 3.280076 5.436530 -1.677094
v 2.986167 5.436530 -1.677094
v 3.280076 7.033730 -3.274284
v 2.986167 7.033730 -3.274284
v 3.280076 7.033725 -1.677089
v 2.986167 7.033725 -1.677089
v 3.280076 5.436525 -0.079898
v 2.986167 5.436525 -0.079898
v 3.280076 7.033720 -0.079893
v 2.986167 7.033720 -0.079893
v 3.280076 5.436520 1.517298
v 2.986167 5.436520 1.517298
v 3.280076 7.033716 1.517302
v 2.986167 7.033716 1.517302
v 3.280076 5.436520 1.816132
v 2.986167 5.436520 1.816132
v 3.280076 7.033715 1.816136
v 2.986167 7.033715 1.816136
v 1.388972 7.033716 1.517302
v 1.388972 5.436520 1.517298
v 1.388972 7.033715 1.816136
v 1.388972 5.436520 1.816132
v -0.208224 7.033716 1.517302
v -0.208224 5.436520 1.517298
v -0.208224 7.033715 1.816136
v -0.208224 5.436520 1.816132
v 1.388972 8.630911 1.517306
v 1.388972 8.630911 1.816140
v -0.208224 8.630911 1.517306
v -0.208224 8.630911 1.816140
v 1.388972 8.852421 1.517307
v 1.388972 8.852419 1.816141
v -0.208224 8.852421 1.517307
v -0.208224 8.852419 1.816141
v 1.388972 8.630915 -0.079889
v -0.208224 8.630915 -0.079889
v 1.388972 8.852425 -0.079889
v -0.208224 8.852425 -0.079889
v 1.388972 8.630917 -0.408717
v -0.208224 8.630917 -0.408717
v 1.388972 8.852425 -0.408717
v -0.208224 8.852425 -0.408717
v 1.388972 7.033720 -0.079893
v -0.208224 7.033720 -0.079893
v 1.388972 7.033720 -0.408721
v -0.208224 7.033720 -0.408721
v 1.388972 8.630920 -2.005913
v -0.208224 8.630920 -2.005913
v 1.388972 8.852428 -2.005912
v -0.208224 8.852428 -2.005912
v 1.388972 8.630920 -2.334625
v -0.208224 8.630920 -2.334625
v 1.388972 8.852429 -2.334625
v -0.208224 8.852429 -2.334625
v 1.388972 7.033724 -2.005916
v -0.208224 7.033724 -2.005916
v 1.388972 7.033725 -2.334629
v -0.208224 7.033725 -2.334629
v 1.388972 5.436529 -2.005920
v -0.208224 5.436529 -2.005920
v 1.388972 5.436530 -2.334633
v -0.208224 5.436530 -2.334633
v -1.805419 7.033724 -2.005916
v -1.805419 7.033725 -2.334629
v -1.805419 5.436529 -2.005920
v -1.805419 5.436530 -2.334633
v -2.215645 7.033724 -2.005916
v -2.215645 7.033725 -2.334629
v -2.215645 5.436529 -2.005920
v -2.215645 5.436530 -2.334633
v -1.805419 7.033720 -0.408721
v -1.805419 5.436525 -0.408725
v -2.215645 7.033720 -0.408721
v -2.215645 5.436525 -0.408725
v -1.805419 7.033717 1.188475
v -1.805419 5.436521 1.188471
v -2.215645 7.033717 1.188475
v -2.215645 5.436521 1.188471
v -2.215645 3.839329 -0.408728
v -1.805419 3.839329 -0.408728
v -2.215645 3.839326 1.188467
v -1.805419 3.839326 1.188467
v -2.215645 2.242134 -0.408732
v -1.805419 2.242134 -0.408732
v -2.215645 2.242130 1.188463
v -1.805419 2.242130 1.188463
v -2.215645 3.839322 2.785663
v -1.805419 3.839322 2.785663
v -2.215645 2.242126 2.785659
v -1.805419 2.242126 2.785659
v -2.215645 3.839318 4.382858
v -1.805419 3.839318 4.382858
v -2.215645 2.242122 4.382854
v -1.805419 2.242122 4.382854
v -2.215645 3.839314 5.980053
v -1.805419 3.839314 5.980053
v -2.215645 2.242119 5.980050
v -1.805419 2.242119 5.980050
v -2.215645 3.839314 6.326667
v -1.805419 3.839314 6.326667
v -2.215645 2.242118 6.326663
v -1.805419 2.242118 6.326663
v -0.208224 3.839314 5.980053
v -0.208224 2.242119 5.980050
v -0.208224 3.839314 6.326667
v -0.208224 2.242118 6.326663
v 1.388972 3.839314 5.980053
v 1.388972 2.242119 5.980050
v 1.388972 3.839314 6.326667
v 1.388972 2.242118 6.326663
v -0.208224 0.644923 5.980048
v -0.208224 0.644923 6.326661
v 1.388972 0.644923 5.980048
v 1.388972 0.644923 6.326661
v 1.388972 5.436524 -0.079897
v -0.208224 5.436524 -0.079897
v 1.388972 5.436525 -0.408725
v -0.208224 5.436525 -0.408725
v 1.388969 0.446008 4.711675
v -0.208227 0.446008 4.711675
v 1.388969 0.644943 4.711675
v -0.208227 0.644943 4.711674
v 1.388969 0.446008 6.308870
v -0.208227 0.446008 6.308870
v 1.388968 0.644943 6.308870
v -0.208227 0.644943 6.308870
vn 0.0000 -1.0000 0.0000
vn 0.0000 1.0000 0.0000
vn 1.0000 0.0000 0.0000
vn 0.0000 0.0000 -1.0000
vn -1.0000 -0.0000 -0.0000
vn 0.0000 0.0000 1.0000
usemtl Material
s off
f 1//1 2//1 3//1 4//1
f 5//2 8//2 7//2 6//2
f 2//1 1//1 9//1 10//1
f 7//2 15//2 24//2 20//2
f 7//2 8//2 16//2 15//2
f 8//2 5//2 39//2 40//2
f 9//3 11//3 12//3 10//3
f 5//2 6//2 12//2 11//2
f 13//1 3//1 18//1 23//1
f 1//4 5//4 11//4 9//4
f 13//5 15//5 16//5 14//5
f 8//4 4//4 14//4 16//4
f 4//1 3//1 13//1 14//1
f 12//2 6//2 19//2 22//2
f 20//2 24//2 32//2 28//2
f 19//2 20//2 28//2 27//2
f 17//1 21//1 29//1 25//1
f 3//1 2//1 17//1 18//1
f 10//3 12//3 22//3 21//3
f 15//5 13//5 23//5 24//5
f 6//2 7//2 20//2 19//2
f 2//1 10//1 21//1 17//1
f 26//6 25//6 33//6 34//6
f 27//6 25//6 29//6 30//6
f 26//6 28//6 32//6 31//6
f 22//2 19//2 27//2 30//2
f 21//3 22//3 30//3 29//3
f 18//1 17//1 25//1 26//1
f 23//1 18//1 26//1 31//1
f 24//5 23//5 31//5 32//5
f 36//5 34//5 194//5 196//5
f 27//6 28//6 36//6 35//6
f 25//6 27//6 35//6 33//6
f 28//6 26//6 34//6 36//6
f 40//2 39//2 43//2 44//2
f 4//5 8//5 40//5 38//5
f 1//1 4//1 38//1 37//1
f 5//3 1//3 37//3 39//3
f 43//3 41//3 45//3 47//3
f 39//3 37//3 41//3 43//3
f 38//5 40//5 44//5 42//5
f 37//1 38//1 42//1 41//1
f 47//4 45//4 46//4 48//4
f 42//5 44//5 48//5 46//5
f 41//1 42//1 46//1 45//1
f 43//3 47//3 51//3 49//3
f 52//5 50//5 54//5 56//5
f 47//4 48//4 52//4 51//4
f 44//6 43//6 49//6 50//6
f 48//5 44//5 50//5 52//5
f 54//2 53//2 55//2 56//2
f 51//4 52//4 56//4 55//4
f 51//4 55//4 59//4 57//4
f 50//6 49//6 53//6 54//6
f 57//4 59//4 63//4 61//4
f 55//2 53//2 60//2 59//2
f 53//6 49//6 58//6 60//6
f 49//1 51//1 57//1 58//1
f 62//3 61//3 63//3 64//3
f 58//1 57//1 61//1 62//1
f 62//3 64//3 67//3 68//3
f 59//2 60//2 64//2 63//2
f 66//1 68//1 72//1 70//1
f 60//5 58//5 66//5 65//5
f 58//1 62//1 68//1 66//1
f 64//2 60//2 65//2 67//2
f 69//6 70//6 72//6 71//6
f 65//5 66//5 70//5 69//5
f 71//3 67//3 73//3 75//3
f 68//3 67//3 71//3 72//3
f 75//3 73//3 77//3 79//3
f 69//6 71//6 75//6 76//6
f 67//4 65//4 74//4 73//4
f 65//5 69//5 76//5 74//5
f 77//2 78//2 80//2 79//2
f 80//5 76//5 82//5 84//5
f 74//5 76//5 80//5 78//5
f 73//4 74//4 78//4 77//4
f 84//5 82//5 86//5 88//5
f 76//1 75//1 81//1 82//1
f 75//3 79//3 83//3 81//3
f 79//2 80//2 84//2 83//2
f 87//2 88//2 92//2 91//2
f 83//2 84//2 88//2 87//2
f 81//3 83//3 87//3 85//3
f 82//1 81//1 85//1 86//1
f 90//6 89//6 91//6 92//6
f 85//3 87//3 91//3 89//3
f 86//1 85//1 89//1 90//1
f 92//2 88//2 93//2 95//2
f 94//1 96//1 100//1 98//1
f 86//1 90//1 96//1 94//1
f 90//6 92//6 95//6 96//6
f 88//4 86//4 94//4 93//4
f 97//5 98//5 100//5 99//5
f 96//6 95//6 99//6 100//6
f 99//6 95//6 102//6 104//6
f 93//4 94//4 98//4 97//4
f 104//6 102//6 106//6 108//6
f 97//5 99//5 104//5 103//5
f 93//4 97//4 103//4 101//4
f 95//3 93//3 101//3 102//3
f 106//2 105//2 107//2 108//2
f 102//3 101//3 105//3 106//3
f 107//2 105//2 111//2 112//2
f 103//5 104//5 108//5 107//5
f 111//3 109//3 113//3 115//3
f 101//1 103//1 110//1 109//1
f 105//3 101//3 109//3 111//3
f 103//5 107//5 112//5 110//5
f 113//1 114//1 122//1 121//1
f 114//4 113//4 119//4 120//4
f 110//5 112//5 116//5 114//5
f 112//2 111//2 115//2 116//2
f 118//5 120//5 192//5 190//5
f 109//6 110//6 118//6 117//6
f 110//5 114//5 120//5 118//5
f 113//3 109//3 117//3 119//3
f 123//3 121//3 125//3 127//3
f 114//5 116//5 124//5 122//5
f 116//2 115//2 123//2 124//2
f 115//3 113//3 121//3 123//3
f 125//4 126//4 128//4 127//4
f 121//6 122//6 130//6 129//6
f 122//5 124//5 128//5 126//5
f 124//2 123//2 127//2 128//2
f 132//4 131//4 135//4 136//4
f 122//5 126//5 132//5 130//5
f 125//3 121//3 129//3 131//3
f 126//4 125//4 131//4 132//4
f 133//1 134//1 136//1 135//1
f 131//3 129//3 133//3 135//3
f 129//6 130//6 134//6 133//6
f 134//6 130//6 137//6 139//6
f 139//3 137//3 145//3 146//3
f 132//4 136//4 140//4 138//4
f 136//1 134//1 139//1 140//1
f 130//2 132//2 138//2 137//2
f 141//5 142//5 144//5 143//5
f 140//1 139//1 143//1 144//1
f 138//4 140//4 144//4 142//4
f 137//2 138//2 142//2 141//2
f 145//2 147//2 151//2 149//2
f 137//2 141//2 147//2 145//2
f 143//1 139//1 146//1 148//1
f 141//5 143//5 148//5 147//5
f 150//6 149//6 151//6 152//6
f 146//3 145//3 149//3 150//3
f 150//6 152//6 155//6 156//6
f 147//5 148//5 152//5 151//5
f 154//3 156//3 160//3 158//3
f 148//4 146//4 154//4 153//4
f 146//3 150//3 156//3 154//3
f 152//5 148//5 153//5 155//5
f 157//1 158//1 160//1 159//1
f 153//4 154//4 158//4 157//4
f 155//5 153//5 157//5 159//5
f 155//5 159//5 163//5 161//5
f 161//5 163//5 167//5 165//5
f 159//1 160//1 164//1 163//1
f 156//2 155//2 161//2 162//2
f 160//3 156//3 162//3 164//3
f 168//3 166//3 170//3 172//3
f 163//1 164//1 168//1 167//1
f 164//3 162//3 166//3 168//3
f 162//2 161//2 165//2 166//2
f 169//5 171//5 175//5 173//5
f 166//2 165//2 169//2 170//2
f 165//5 167//5 171//5 169//5
f 167//1 168//1 172//1 171//1
f 174//6 173//6 175//6 176//6
f 171//1 172//1 176//1 175//1
f 176//1 172//1 178//1 180//1
f 170//2 169//2 173//2 174//2
f 180//5 178//5 185//5 186//5
f 174//6 176//6 180//6 179//6
f 170//2 174//2 179//2 177//2
f 172//4 170//4 177//4 178//4
f 182//3 181//3 183//3 184//3
f 178//4 177//4 181//4 182//4
f 177//2 179//2 183//2 181//2
f 179//6 180//6 184//6 183//6
f 186//1 185//1 187//1 188//1
f 184//6 180//6 186//6 188//6
f 178//4 182//4 187//4 185//4
f 182//3 184//3 188//3 187//3
f 189//1 190//1 192//1 191//1
f 120//4 119//4 191//4 192//4
f 119//3 117//3 189//3 191//3
f 117//6 118//6 190//6 189//6
f 195//2 196//2 200//2 199//2
f 34//1 33//1 193//1 194//1
f 35//2 36//2 196//2 195//2
f 33//3 35//3 195//3 193//3
f 197//6 199//6 200//6 198//6
f 193//3 195//3 199//3 197//3
f 196//5 194//5 198//5 200//5
f 194//1 193//1 197//1 198//1
